<svg width="22" height="22" viewBox="0 0 22 22" fill="none" xmlns="http://www.w3.org/2000/svg">
<path d="M16.5556 20.2468H5.44444C4.2657 20.2468 3.13524 19.7785 2.30175 18.945C1.46825 18.1115 1 16.9811 1 15.8023V8.8112C0.999984 8.047 1.19702 7.2957 1.57208 6.62986C1.94713 5.96402 2.48754 5.40614 3.14111 5.01009L8.69667 1.64343C9.39124 1.22253 10.1879 1 11 1C11.8121 1 12.6088 1.22253 13.3033 1.64343L18.8589 5.01009C19.5123 5.40604 20.0526 5.96375 20.4277 6.62938C20.8027 7.295 20.9998 8.04607 21 8.81009V15.8023C21 16.9811 20.5317 18.1115 19.6983 18.945C18.8648 19.7785 17.7343 20.2468 16.5556 20.2468Z" stroke="white" stroke-width="2" stroke-linecap="round" stroke-linejoin="round"/>
<path d="M7.66675 15.8022H14.3334" stroke="white" stroke-width="2" stroke-linecap="round" stroke-linejoin="round"/>
</svg>
