<svg width="25" height="18" viewBox="0 0 25 18" fill="none" xmlns="http://www.w3.org/2000/svg">
<path d="M6.69263 5.5542L12.3853 9.5391L18.0781 5.5542" stroke="white" stroke-width="2" stroke-linecap="round" stroke-linejoin="round"/>
<path d="M1 14.6625V3.27708C1 2.67316 1.23991 2.09398 1.66694 1.66694C2.09398 1.23991 2.67316 1 3.27708 1H21.4938C22.0977 1 22.6769 1.23991 23.1039 1.66694C23.5309 2.09398 23.7708 2.67316 23.7708 3.27708V14.6625C23.7708 15.2664 23.5309 15.8456 23.1039 16.2726C22.6769 16.6997 22.0977 16.9396 21.4938 16.9396H3.27708C2.67316 16.9396 2.09398 16.6997 1.66694 16.2726C1.23991 15.8456 1 15.2664 1 14.6625Z" stroke="white" stroke-width="2"/>
</svg>
